# xmcd
#
# Track frame offsets:
#	150
#	11565
#	22290
#	33428
#	43343
#	54698
#	66196
#	77769
#	88052
#	98515
#	108685
#	118953
#
# Disc length: 1732 seconds
#
# Revision: 1
# Processed by: cddbd v1.5.2PL0 Copyright (c) Steve Scherf et al.
# Submitted via: audiograbber 1.83.01
#
DISCID=a706c20c
DTITLE=Kitty Wells - Lonesome Sad and Blue
DYEAR=1965
DGENRE=Country
TTITLE0=Oh, Lonesome Me
TTITLE1=A Thing Called Sadness
TTITLE2=Blues Are Sittin' In
TTITLE3=When Your Little High Horse Runs Down
TTITLE4=You're The Only World I Know
TTITLE5=Loving You Then Losing You
TTITLE6=Leavin' Town Tonight
TTITLE7=Dear Heart
TTITLE8=The Race Is On
TTITLE9=Welcome To My World
TTITLE10=Watch It Heart, Don't Fall
TTITLE11=Cheatin' Is Catching
EXTD=
EXTT0=
EXTT1=
EXTT2=
EXTT3=
EXTT4=
EXTT5=
EXTT6=
EXTT7=
EXTT8=
EXTT9=
EXTT10=
EXTT11=
PLAYORDER=
